<svg xmlns="http://www.w3.org/2000/svg" viewBox="0 0 1440 320">
  <defs>
    <filter id="curvedShadow" x="-50%" y="-50%" width="200%" height="200%">
      <feGaussianBlur in="SourceAlpha" stdDeviation="10" result="blur"/>
      <feOffset in="blur" dx="0" dy="10" result="offsetBlur"/>
      <feFlood flood-color="rgba(0,0,0,0.5)" result="color"/>
      <feComposite in2="offsetBlur" operator="in" result="shadow"/>
      <feMerge>
        <feMergeNode in="shadow"/>
        <feMergeNode in="SourceGraphic"/>
      </feMerge>
    </filter>
  </defs>
  <path filter="url(#curvedShadow)" d="M0,32L48,53.3C96,75,192,117,288,144C384,171,480,181,576,176C672,171,768,149,864,138.7C960,128,1056,128,1152,128C1248,128,1344,128,1392,128L1440,128L1440,0L1392,0C1344,0,1248,0,1152,0C1056,0,960,0,864,0C768,0,672,0,576,0C480,0,384,0,288,0C192,0,96,0,48,0L0,0Z"></path>
</svg>
