<svg xmlns="http://www.w3.org/2000/svg" viewBox="0 0 1440 320">
  <defs>
    <!-- Adjust the x1, y1, x2, y2 values to change gradient direction -->
    <linearGradient id="grad" x1="10%" y1="100%" x2="0%" y2="0%">
      <stop offset="0%" style="stop-color:#f5f5f5;stop-opacity:1" />
      <stop offset="100%" style="stop-color:#bababa;stop-opacity:1" />
    </linearGradient>
  </defs>
  <path fill="url(#grad)" fill-opacity="5" d="M0,64L48,53.3C96,43,192,21,288,37.3C384,53,480,107,576,138.7C672,171,768,181,864,165.3C960,149,1056,107,1152,74.7C1248,43,1344,21,1392,10.7L1440,0L1440,320L1392,320C1344,320,1248,320,1152,320C1056,320,960,320,864,320C768,320,672,320,576,320C480,320,384,320,288,320C192,320,96,320,48,320L0,320Z"></path>
</svg>